<?xml version="1.0" encoding="UTF-8"?>
<svg xmlns="http://www.w3.org/2000/svg" xmlns:xlink="http://www.w3.org/1999/xlink" width="24pt" height="24pt" viewBox="0 0 24 24" version="1.1">
<g id="surface1">
<path style=" stroke:none;fill-rule:nonzero;fill:#505f79;fill-opacity:1;" d="M 4 2 C 2.894531 2 2 2.894531 2 4 L 2 20 C 2 21.105469 2.894531 22 4 22 L 20 22 C 21.105469 22 22 21.105469 22 20 L 22 4 C 22 2.894531 21.105469 2 20 2 Z M 9 5 L 19 5 C 19.550781 5 20 5.449219 20 6 L 20 14 C 20 14.550781 19.550781 15 19 15 L 16 15 L 16 18 C 16 18.550781 15.550781 19 15 19 L 5 19 C 4.449219 19 4 18.550781 4 18 L 4 10 C 4 9.449219 4.449219 9 5 9 L 8 9 L 8 6 C 8 5.449219 8.449219 5 9 5 Z M 10 9 L 10 13 L 18 13 L 18 9 Z M 6 13 L 6 17 L 14 17 L 14 15 L 10 15 C 8.898438 15 8 14.101563 8 13 Z "/>
</g>
</svg>
