<?xml version="1.0" encoding="UTF-8"?>
<svg xmlns="http://www.w3.org/2000/svg" xmlns:xlink="http://www.w3.org/1999/xlink" width="24pt" height="24pt" viewBox="0 0 24 24" version="1.1">
<g id="surface1">
<path style=" stroke:none;fill-rule:nonzero;fill:#505f79;fill-opacity:1;" d="M 17 2 L 7 2 C 5.898438 2 5 2.898438 5 4 L 5 20 C 5 21.101563 5.898438 22 7 22 L 17 22 C 18.101563 22 19 21.101563 19 20 L 19 4 C 19 2.898438 18.101563 2 17 2 Z M 12 21 C 11.449219 21 11 20.550781 11 20 C 11 19.449219 11.449219 19 12 19 C 12.550781 19 13 19.449219 13 20 C 13 20.550781 12.550781 21 12 21 Z M 17 18 L 7 18 L 7 5 L 17 5 Z "/>
</g>
</svg>
